<svg id="Layer_1" data-name="Layer 1" xmlns="http://www.w3.org/2000/svg" viewBox="0 0 532.6503 427.8886">
  <defs>
    <style>
      .cls-1 {
        fill: #fbfff6;
      }
    </style>
  </defs>
  <path class="cls-1" d="M311.9632,189.841a21.1915,21.1915,0,0,0,18.48,2.8008c8.9609-2.8008,15.121-11.762,15.121-21.281v-19.602a28.946,28.946,0,0,0,14.559-21.84l3.9219-28.559c2.2383-15.121-2.8008-30.801-12.879-42.559L325.9671,29.68V6.7188a6.7188,6.7188,0,0,0-13.4376,0v25.762a6.3573,6.3573,0,0,0,1.68,4.48l26.879,30.801a39.1361,39.1361,0,0,1,9.52,31.922l-3.9219,28.559a15.9757,15.9757,0,0,1-16.801,14l-34.719-.5586a7.6547,7.6547,0,0,1-7.84-7.84c0-2.2383,1.1211-3.9219,2.2383-5.6016a7.1891,7.1891,0,0,1,5.6016-2.2383l23.52,1.1211a6.6484,6.6484,0,0,0,6.7188-5.6016l2.2383-15.121a6.9728,6.9728,0,0,0-5.6016-7.84,7.325,7.325,0,0,0-7.84,5.6016l-1.1211,7.84c-23.52-11.199-21.84-34.16-21.84-35.281.5586-3.9219-2.2383-6.7188-6.16-7.2812h-.5586c-3.3594,0-6.16,2.8008-6.7188,6.16-1.1211,9.52,1.68,25.199,13.441,37.52a20.7989,20.7989,0,0,0-12.32,5.6016,30.8645,30.8645,0,0,0-3.9219,5.0391,20.719,20.719,0,0,0-11.762-3.3594,21.5028,21.5028,0,0,0-16.801,8.3984c-3.3594-2.8008-7.84-3.9219-12.32-3.9219a16.44,16.44,0,0,0-8.9609,2.2383c-3.3594-19.039-3.9219-38.641-3.9219-52.641,0-12.32,6.7188-23.52,16.801-30.238l6.16-3.9219a6.1629,6.1629,0,0,0,3.3594-5.6016V7.8377a6.7188,6.7188,0,0,0-13.4376,0v22.961l-1.1172.5625c-14.559,8.9609-22.961,24.641-23.52,41.441,0,17.359.5586,42.559,6.16,65.52a28.171,28.171,0,0,0-1.1211,6.7188v21.84c0,11.762,9.52,22.398,21.281,22.398,5.0391,0,8.9609-1.68,12.879-3.9219a21.496,21.496,0,0,0,16.801,8.3984,22.9514,22.9514,0,0,0,12.32-3.9219c3.9219,5.0391,10.078,8.9609,17.359,8.9609a23.8811,23.8811,0,0,0,16.801-8.9531Zm3.9219-34.723,13.441.5586h2.2383v16.801a7.84,7.84,0,1,1-15.68,0Zm-71.68,12.879a7.84,7.84,0,0,1-15.68,0V145.036a7.84,7.84,0,0,1,15.68,0Zm29.117,3.9219a7.84,7.84,0,1,1-15.68,0v-30.801a7.84,7.84,0,1,1,15.68,0Zm13.441,5.0391V152.88a46.511,46.511,0,0,0,8.3984,2.2383h7.2812v21.84a7.84,7.84,0,0,1-15.68,0Z"/>
  <path class="cls-1" d="M241.4032,254.801c-5.0391-2.2383-11.199-2.8008-16.238-.5586l-50.398,18.48,33.602-28c8.9609-7.2811,10.078-21.281,2.8008-30.238a21.9408,21.9408,0,0,0-30.238-2.8008l-59.93,49.84a29.18,29.18,0,0,0-28-2.8008l-26.879,11.199a54.1056,54.1056,0,0,0-30.238,32.48L23.565,338.8l-20.16,11.762c-3.3594,1.68-4.48,6.16-2.2383,8.9609,2.2383,2.8008,6.16,4.4805,8.9609,2.2383l22.398-12.879c1.68-.5585,2.2383-2.2383,2.8008-3.9219l12.879-38.6409c3.9219-11.1991,11.762-20.16,22.961-24.641l26.879-11.199c7.84-3.3594,16.238,0,20.719,6.7188v.5586l16.801,30.238a8.004,8.004,0,0,1-2.8008,10.641c-1.68,1.6836-3.9219,1.6836-6.16,1.125a6.3952,6.3952,0,0,1-4.48-3.9219l-11.199-21.2811a7.1937,7.1937,0,0,0-8.3984-3.3594l-14,5.6016a6.5542,6.5542,0,1,0,4.4765,12.32l7.2812-2.8008c2.2383,25.762-18.48,35.84-19.602,36.398a6.7456,6.7456,0,0,0-3.3594,8.961.547.547,0,0,0,.5586.5585c1.68,2.8009,5.6016,4.4805,8.3984,2.8009,8.3984-3.9219,20.719-14,25.762-30.238a21.8237,21.8237,0,0,0,11.199,7.2811,15.4953,15.4953,0,0,0,7.2812.5586c0,2.8008,0,6.16,1.1211,8.9609q.8379,1.6817,1.68,3.3594a24.1941,24.1941,0,0,0,11.762,9.5195,20.0613,20.0613,0,0,0,0,14q.8379,1.6816,1.68,3.36a23.874,23.874,0,0,0,6.16,6.7188c-14,11.199-29.121,20.16-40.32,26.879-10.641,6.16-23.52,6.16-34.719.5586l-6.7188-3.3594a7.1314,7.1314,0,0,0-6.7188,0l-22.965,12.8869c-3.3594,1.68-4.48,6.16-2.2383,8.961,1.68,3.3594,6.16,4.48,8.9609,2.2383l20.16-11.762,3.3594,1.68c15.121,7.84,33.039,7.84,47.602-.5586,14-7.84,33.602-20.16,50.398-34.719,1.1211,0,1.68-.5586,2.8008-.5586l21.281-7.84a21.3978,21.3978,0,0,0,12.879-27.441,18.77,18.77,0,0,0-8.3984-10.0781c.5586-.5585,1.1211-1.68,1.68-2.2383,2.2383-5.0391,2.8008-11.199.5586-16.238a19.3114,19.3114,0,0,0-3.9219-6.7188l43.121-15.68c5.6016-1.68,9.52-5.6016,12.32-11.199,2.2383-5.0391,2.8008-11.199.5586-16.238a24.0912,24.0912,0,0,0-11.199-12.332Zm-110.88,16.801a.5471.5471,0,0,0-.5586-.5586l58.801-49.281a7.9864,7.9864,0,0,1,11.199,1.1211c.5586.5586.5586.5586.5586,1.1211,1.68,3.3594,1.1211,7.84-1.68,10.078l-61.039,50.961Zm17.359,70.559c-1.68-1.1211-3.3594-2.2383-3.9219-4.4805-1.68-3.9219.5586-8.9609,4.4805-10.078l29.121-10.641a11.5318,11.5318,0,0,1,6.16,0,5.0427,5.0427,0,0,1,3.3594,3.3594c0,.5586.5586.5586.5586,1.1211a7.9521,7.9521,0,0,1-.5586,6.16c-1.1211,1.68-2.2383,3.3594-4.4805,3.9219l-29.121,10.641a5.0861,5.0861,0,0,1-5.5977-.0039ZM193.8,356.723c-1.1211,1.68-2.2383,3.3594-4.48,3.9219l-21.281,7.84a11.5318,11.5318,0,0,1-6.16,0c-2.2383-.5586-3.3594-2.2383-3.9219-4.48a11.5315,11.5315,0,0,1,0-6.16,9.9913,9.9913,0,0,1,4.48-3.922l21.281-7.84c3.9219-1.68,8.9609.5586,10.078,4.4805a6.0528,6.0528,0,0,1,.0039,6.16Zm45.359-78.961c-1.1211,1.68-2.2383,3.3594-4.4805,3.9219l-85.121,30.801a24.2742,24.2742,0,0,0-2.2383-10.641l-2.2383-4.4805,84.559-30.801a11.5318,11.5318,0,0,1,6.16,0c1.68,1.1211,3.3594,2.2384,3.9219,4.48.5586,2.8009.5586,4.4805-.5625,6.7188Z"/>
  <path class="cls-1" d="M529.2432,345.521l-19.602-11.199-10.078-33.039a59.9856,59.9856,0,0,0-29.68-36.398l-42-22.398c-10.078-5.6016-22.3981-2.2383-28.559,7.84-.5586.5586-.5586,1.68-1.1211,2.2383l-45.359-25.199c-10.078-5.6016-23.52-2.2383-29.121,7.84-1.68,2.8008-2.2384,6.16-2.8009,9.5195a21.3122,21.3122,0,0,0-19.6013,34.161,17.016,17.016,0,0,0-6.7188,7.2812c-5.6016,10.078-2.2383,23.52,7.84,29.121l7.84,4.4805a17.5019,17.5019,0,0,0-5.039,6.16c-5.6016,10.078-2.2384,23.52,7.84,29.121l28.559,16.238a140.9171,140.9171,0,0,1,21.84,15.121l1.121.5586c17.922,14,64.9611,50.398,99.121,28.559l19.602,11.199a6.6386,6.6386,0,0,0,6.16-11.7617l-22.961-12.879a6.8869,6.8869,0,0,0-7.2812.5586c-26.32,20.719-70-13.441-86.801-26.32l-1.121-.5586a155.3154,155.3154,0,0,0-23.52-15.68l-28.559-16.238a7.5172,7.5172,0,0,1-2.8008-10.641,7.63,7.63,0,0,1,10.641-2.8008l42,23.52a6.6387,6.6387,0,0,0,6.16-11.7618l-65.52-38.641a7.63,7.63,0,0,1-2.8009-10.6409,7.5173,7.5173,0,0,1,10.641-2.8009l57.68,32.48a6.8684,6.8684,0,0,0,8.9609-2.2384,6.5279,6.5279,0,0,0-2.8008-8.9609l-67.199-38.078a7.7806,7.7806,0,0,1,7.84-13.4418l62.16,35.281a6.6386,6.6386,0,1,0,6.16-11.7617l-52.641-29.68a7.63,7.63,0,0,1-2.8008-10.641,7.5172,7.5172,0,0,1,10.641-2.8008l50.398,28.559c1.68,5.6016,5.0391,10.641,10.078,13.441l14.559,8.3984c-11.762,47.039,25.199,62.719,25.762,62.719a6.9375,6.9375,0,0,0,8.3984-2.8008.5471.5471,0,0,1,.5586-.5586,6.6533,6.6533,0,0,0-3.9219-8.3984c-1.1211-.5586-25.199-10.641-19.039-43.121a39.3466,39.3466,0,0,1,5.6016,4.4805l3.3594,2.8008a6.7429,6.7429,0,0,0,8.9609-10.0781l-3.3594-2.8008c-3.3555-6.16-7.2773-9.5195-12.316-11.762l-21.281-12.32a7.1412,7.1412,0,0,1-3.9219-5.0391,7.7792,7.7792,0,0,1,1.1211-6.16,7.63,7.63,0,0,1,10.641-2.8008l42,22.398a49.63,49.63,0,0,1,23.52,28.559l10.641,35.84a7.5313,7.5313,0,0,0,3.3594,3.9219l21.84,12.32a7.034,7.034,0,0,0,6.7226-12.3164Z"/>
</svg>
