<svg id="Layer_1" data-name="Layer 1" xmlns="http://www.w3.org/2000/svg" viewBox="0 0 532.6503 427.8886"><defs><style>.cls-1{fill:#fff;}</style></defs><path class="cls-1" d="M212.6482,19.2723A45.6146,45.6146,0,0,0,172.87,13.2436c-19.2884,6.0287-32.548,25.3177-32.548,45.8073v42.1933a62.3066,62.3066,0,0,0-31.3382,47.0106l-8.4419,61.4732c-4.8179,32.5479,6.0288,66.2991,27.7221,91.6082l54.2408,62.6825v49.4239a14.4622,14.4622,0,0,0,28.9244,0V357.99a13.684,13.684,0,0,0-3.6162-9.6432l-57.857-66.2991a84.24,84.24,0,0,1-20.4918-68.712l8.4419-61.4733a34.3878,34.3878,0,0,1,36.1642-30.135l74.7325,1.2024a16.4767,16.4767,0,0,1,16.8756,16.068q.01.4036,0,.8076c0,4.8179-2.4131,8.4419-4.8179,12.0574a15.4747,15.4747,0,0,1-12.0575,4.818l-50.6267-2.4132a14.3106,14.3106,0,0,0-14.4622,12.0574l-4.818,32.548a15.0089,15.0089,0,0,0,12.0574,16.8755,15.767,15.767,0,0,0,16.8756-12.0574l2.4132-16.8756c50.6267,24.1058,47.01,73.5294,47.01,75.9423-1.2024,8.4419,4.818,14.4622,13.2594,15.6728h1.2024c7.2311,0,13.2594-6.0287,14.4622-13.2594,2.4132-20.4918-3.6162-54.2408-28.9317-80.7618a44.77,44.77,0,0,0,26.5188-12.0574,66.4443,66.4443,0,0,0,8.4419-10.8467,44.5966,44.5966,0,0,0,25.3176,7.2311,46.2849,46.2849,0,0,0,36.1642-18.0775c7.2311,6.0287,16.8755,8.4419,26.5188,8.4419a35.3867,35.3867,0,0,0,19.2883-4.818c7.2311,40.9814,8.4419,83.1747,8.4419,113.31,0,26.5188-14.4622,50.6268-36.1641,65.0873l-13.2594,8.4418a13.2657,13.2657,0,0,0-7.2311,12.0575v57.8552a14.4622,14.4622,0,1,0,28.9244,0V361.6107l2.4048-1.2108c31.3382-19.2884,49.4235-53.04,50.6267-89.2017,0-37.3653-1.2023-91.6082-13.2594-141.0317a60.6349,60.6349,0,0,0,2.4132-14.4622V68.6937c0-25.3177-20.4918-48.2117-45.8073-48.2117-10.8467,0-19.2884,3.6162-27.7221,8.4419a46.27,46.27,0,0,0-36.1641-18.0775,49.402,49.402,0,0,0-26.5188,8.4419C277.7375,8.4416,264.4865,0,248.8141,0A51.4045,51.4045,0,0,0,212.65,19.2714Zm-8.4419,74.7412-28.9318-1.2024h-4.8179V56.647a16.8756,16.8756,0,1,1,33.7511-.0334v.0334Zm154.2911-27.722a16.8756,16.8756,0,0,1,33.7511,0V115.715a16.8756,16.8756,0,0,1-33.7511,0ZM295.8231,57.85a16.8756,16.8756,0,0,1,33.7511-.0335v66.3326a16.8756,16.8756,0,1,1-33.7511.0334V57.85ZM266.8913,47.0029V98.8308a100.1167,100.1167,0,0,0-18.0776-4.8179H233.141V47.0023a16.8756,16.8756,0,0,1,33.7512,0Z"/></svg>