<svg fill="#13C4A3" id="Layer_1" data-name="Layer 1" xmlns="http://www.w3.org/2000/svg" viewBox="0 0 425.1314 660.6361"><path d="M9.0694,318.9136c-8.9954,59.1915-31.8085,214.1007,62.3882,264.3l-.4,59.4316a17.4769,17.4769,0,0,0,34.9381-1.0442l-.08-69.3073a18.13,18.13,0,0,0-10.6784-15.9865c-81.509-33.6553-59.4961-177.9685-51.6263-233.141l.0014-.2869c4.127-24.5124,5.8437-52.3564,5.4595-77.211l.4032-86.4874a19.79,19.79,0,0,1,19.39-20.1815q.7062-.0141,1.4119.0221a20.0869,20.0869,0,0,1,20.1719,20.0016q.0018.4-.0125.8007l.2337,126.7269a17.4772,17.4772,0,0,0,34.9384-1.0443l4.1095-200.21A20.087,20.087,0,0,1,149.72,65.1241q.4-.0016.8.0126a19.79,19.79,0,0,1,20.1817,19.3908q.0143.7057-.0221,1.4114l-.09,174.27a18.0819,18.0819,0,0,0,16.7006,17.673,17.1855,17.1855,0,0,0,16.9648-17.4035q-.0037-.2939-.0176-.5877l.6508-203.3363a20.4834,20.4834,0,0,1,40.9615.6424l-.7359,188.1642a17.4769,17.4769,0,1,0,34.9407-.958l-.0025-.0862.1684-159.0934a20.0869,20.0869,0,0,1,20.0015-20.172q.4-.0016.8008.0126a19.79,19.79,0,0,1,20.1816,19.39q.0141.7061-.0222,1.4118l-.4908,152.5c-10.6854,11.084-17.9137,25.2954-17.8358,40.4712l-.482,44.2456c-123.1152,33.7167-111.3949,138.7632-110.6683,140.055a18.2639,18.2639,0,0,0,17.2652,15.6565,1.44,1.44,0,0,1,1.9727.5076q.0154.0263.03.0533a17.5157,17.5157,0,0,0,14.21-19.8378c-.1651-3.2933-8.1035-71.5543,74.375-99.3364a103.5767,103.5767,0,0,1-3.0519,18.6357L294.4146,390.14a17.7515,17.7515,0,0,0,34.69,7.5555l2.0913-11.323c9.8043-15.6493,12.4518-28.9839,11.0948-43.44l.8055-64.731a18.8,18.8,0,0,1,6.5013-15.5024,20.48,20.48,0,0,1,15.5816-5.3772,20.0868,20.0868,0,0,1,20.1719,20.0015q.0018.4-.0125.8008l2.8082,125.2789a130.6569,130.6569,0,0,1-35.1781,90.8256l-68.5059,70.67a19.8273,19.8273,0,0,0-4.6638,12.77l-.0841,66.0137a18.5179,18.5179,0,0,0,36.9371-.4692l-.0027-.0046.4-59.4315,62.8053-65.7633A157.9194,157.9194,0,0,0,425.07,402.9365l-2.8082-125.2789c-.1527-30.3541-23.77-54.2834-54.8463-55.4138-2.0026-.5608-4.5758.8864-6.5828.3162l-.7159-136.6013c-.1527-30.3541-25.2176-56.8577-55.5716-56.7033-8.5948-.24-17.0235,2.8134-25.4582,5.8583a56.1069,56.1069,0,0,0-103.6822-.891,44.7969,44.7969,0,0,0-25.3784-6.02C119.6724,28.355,93.1688,53.42,93.3232,83.7739l-.1631,23.772a46.074,46.074,0,0,0-20.6378-3.6128c-30.3541.1526-56.8578,25.2173-56.7033,55.5715l-.4033,86.4874C15.219,275.1047,9.0694,318.9136,9.0694,318.9136Z"/></svg>