<svg id="Layer_1" data-name="Layer 1" xmlns="http://www.w3.org/2000/svg" viewBox="0 0 500 500" fill="#446DF6">
  <g>
    <path d="M295.7255,189.8335a21.1916,21.1916,0,0,0,18.48,2.8008c8.9609-2.8008,15.121-11.762,15.121-21.281v-19.602a28.946,28.946,0,0,0,14.559-21.84l3.9219-28.559c2.2383-15.121-2.8008-30.801-12.879-42.559l-25.199-29.1208V6.7113a6.7188,6.7188,0,0,0-13.4376,0v25.762a6.3569,6.3569,0,0,0,1.68,4.48l26.879,30.801a39.1362,39.1362,0,0,1,9.52,31.922l-3.9219,28.559a15.9757,15.9757,0,0,1-16.801,14l-34.719-.5586a7.6547,7.6547,0,0,1-7.84-7.4648q-.0047-.1875,0-.3752c0-2.2383,1.1211-3.9219,2.2383-5.6016a7.1893,7.1893,0,0,1,5.6016-2.2383l23.52,1.1211a6.6483,6.6483,0,0,0,6.7188-5.6016l2.2383-15.121a6.9729,6.9729,0,0,0-5.6016-7.84,7.3251,7.3251,0,0,0-7.84,5.6016l-1.1211,7.84c-23.52-11.199-21.84-34.16-21.84-35.281.5586-3.9219-2.2383-6.7188-6.16-7.2812h-.5586c-3.3594,0-6.16,2.8008-6.7188,6.16-1.1211,9.52,1.68,25.199,13.441,37.52a20.7984,20.7984,0,0,0-12.32,5.6016,30.8621,30.8621,0,0,0-3.9219,5.0391,20.7181,20.7181,0,0,0-11.762-3.3594,21.5025,21.5025,0,0,0-16.801,8.3984c-3.3594-2.8008-7.84-3.9219-12.32-3.9219a16.4391,16.4391,0,0,0-8.9609,2.2383c-3.3594-19.039-3.9219-38.641-3.9219-52.641,0-12.32,6.7188-23.52,16.801-30.238l6.16-3.9219a6.1631,6.1631,0,0,0,3.3594-5.6016V7.83a6.7188,6.7188,0,0,0-13.4376,0v22.961l-1.1172.5625c-14.559,8.9609-22.961,24.641-23.52,41.441,0,17.359.5586,42.559,6.16,65.52a28.1671,28.1671,0,0,0-1.1211,6.7188v21.84c0,11.762,9.52,22.398,21.281,22.398,5.0391,0,8.9609-1.68,12.879-3.9219a21.4961,21.4961,0,0,0,16.801,8.3984,22.9516,22.9516,0,0,0,12.32-3.9219c3.9219,5.0391,10.078,8.9609,17.359,8.9609a23.8811,23.8811,0,0,0,16.801-8.9531Zm3.9219-34.723,13.441.5586h2.2383V172.47a7.84,7.84,0,1,1-15.68.0155V172.47Zm-71.68,12.879a7.84,7.84,0,0,1-15.68,0v-22.961a7.84,7.84,0,0,1,15.68,0Zm29.117,3.9219a7.84,7.84,0,1,1-15.68.0155V141.11a7.84,7.84,0,0,1,15.68-.0155v30.8165Zm13.441,5.0391v-24.078a46.51,46.51,0,0,0,8.3984,2.2383h7.2812v21.84a7.84,7.84,0,0,1-15.68,0Z"/>
    <path d="M220.0658,297.9385c-5.3528-1.3229-11.5162-.8-16.0856,2.2889l-46.3909,27.0065,28.1892-33.4434c7.55-8.7356,6.2022-22.7152-2.5289-30.262a21.9408,21.9408,0,0,0-30.2619,2.5289l-50.2934,59.55a29.18,29.18,0,0,0-28.0585,2.1376l-24.507,15.7258A54.1052,54.1052,0,0,0,26.035,380.7372l-5.7667,37.9915L2.4752,433.8341c-3.014,2.2415-3.3341,6.8484-.6372,9.2143,2.6935,2.3663,6.8484,3.3345,9.2142.6371L30.8536,427.089c1.5565-.8436,1.8125-2.5951,2.072-4.3511l5.925-40.2975c1.9035-11.7122,8.0562-21.9058,18.2993-28.2757L81.657,338.4388c7.1319-4.6783,15.9879-2.8389,21.5745,2.993l.0977.55,21.8288,26.835a8.004,8.004,0,0,1-.8973,10.9668c-1.36,1.9513-3.5671,2.3433-5.8684,2.1846a6.3952,6.3952,0,0,1-5.0967-3.0783L98.5485,359.8945a7.1939,7.1939,0,0,0-8.8564-1.8393l-12.805,7.9629a6.5542,6.5542,0,1,0,6.4816,11.3938q.04-.0228.08-.0461l6.6794-4.0307C96.8357,398.309,78.1985,411.854,77.1913,412.6a6.7456,6.7456,0,0,0-1.7653,9.3749l.0243.0354a.547.547,0,0,0,.6247.4563l.023-.0041c2.1438,2.4641,6.2986,3.4322,8.7587,1.2895,7.5834-5.33,17.9523-17.4067,20.0787-34.2763a21.8238,21.8238,0,0,0,12.2995,5.211,15.4946,15.4946,0,0,0,7.2667-.723c.49,2.7577,1.077,6.0651,2.6705,8.6269q1.119,1.5093,2.2414,3.014a24.1947,24.1947,0,0,0,13.2452,7.3165,20.0612,20.0612,0,0,0,2.4476,13.7844q1.119,1.5091,2.2416,3.0145a23.8743,23.8743,0,0,0,7.24,5.5383c-11.8264,13.4742-25.1478,24.9408-35,33.5143-9.4,7.9255-22.0808,10.1771-34.0866,6.62l-7.2026-2.133a7.1315,7.1315,0,0,0-6.6154,1.1747L51.3251,491.1372c-3.014,2.2414-3.3341,6.8484-.6372,9.2143,2.2415,3.014,6.8484,3.3341,9.2142.6372l17.7932-15.1054,3.6013,1.0667c16.2588,5.0757,33.9009,1.943,46.7712-8.8723,12.4137-10.1669,29.56-25.7242,43.5518-42.9954,1.1039-.196,1.5565-.8437,2.66-1.04l19.5826-11.44a21.3978,21.3978,0,0,0,7.92-29.2063l-.0367-.0637a18.77,18.77,0,0,0-10.031-8.4546c.4523-.6475.81-1.85,1.2628-2.4975,1.3228-5.3528.8-11.5162-2.289-16.0856a19.3111,19.3111,0,0,0-5.0361-5.93l39.7155-22.9774c5.2216-2.6334,8.394-7.18,10.1723-13.18,1.3228-5.3528.8-11.5162-2.2889-16.0856a24.0917,24.0917,0,0,0-13.1826-10.1841ZM113.8308,333.866a.547.547,0,0,0-.6247-.4564l-.0229.0041,49.28-58.8023a7.9864,7.9864,0,0,1,11.2225-.8541c.6477.4523.6477.4523.746,1.0062,2.2415,3.0139,2.4745,7.5232.1078,10.2165L123.35,345.8276Zm29.4276,66.4374c-1.85-.81-3.699-1.6165-4.6448-3.7258-2.34-3.5678-1.0167-8.9206,2.65-10.7062l26.8121-15.5683a11.5324,11.5324,0,0,1,6.0652-1.077,5.043,5.043,0,0,1,3.895,2.72c.0976.55.6476.4524.7459,1.0062a7.9518,7.9518,0,0,1,.527,6.1628c-.81,1.85-1.6165,3.699-3.7258,4.6448L148.77,399.3286a5.0861,5.0861,0,0,1-5.5122.9748Zm47.7565,6.31c-.81,1.85-1.6165,3.699-3.7253,4.6448l-19.5826,11.44a11.5318,11.5318,0,0,1-6.0651,1.077c-2.3015-.1587-3.699-1.6165-4.6448-3.7254a11.5318,11.5318,0,0,1-1.0769-6.0651,9.9908,9.9908,0,0,1,3.7253-4.6448l19.5826-11.44c3.5677-2.34,8.92-1.0166,10.7061,2.65a6.0528,6.0528,0,0,1,1.0808,6.0644Zm30.8555-85.675c-.81,1.85-1.6164,3.699-3.7258,4.6448L139.72,370.7915a24.2734,24.2734,0,0,0-4.0642-10.0858l-2.9872-4.02,77.8717-45.11a11.5321,11.5321,0,0,1,6.0651-1.0769c1.85.81,3.699,1.6166,4.6448,3.7253,1.04,2.66,1.3333,4.3138.6208,6.7137Z"/>
    <path d="M498.4187,432.8258,482.88,416.4491l-.1206-34.5417a59.986,59.986,0,0,0-17.9207-43.4116l-33.7551-33.56c-8.0341-8.27-20.8007-8.6033-29.6066-.73-.696.3737-1.0194,1.4475-1.719,1.82L363.5943,268.815c-8.0341-8.27-21.8749-8.9269-30.1447-.8923-2.4164,2.1972-3.92,5.2526-5.4275,8.3071a21.3121,21.3121,0,0,0-28.621,27.0558,17.0164,17.0164,0,0,0-8.5334,5.0339c-8.27,8.0341-8.9268,21.8749-.8923,30.1447l6.2146,6.5513a17.503,17.503,0,0,0-6.6016,4.4449c-8.27,8.0341-8.9269,21.8749-.8923,30.1447l22.662,23.785a140.914,140.914,0,0,1,16.5506,20.7775l.9123.8582c13.1224,18.5741,47.6646,66.9924,86.6717,55.934l15.5389,16.3767a6.6386,6.6386,0,0,0,9.29-9.4852l-18.2706-18.9541a6.8869,6.8869,0,0,0-7.1329-1.5652c-31.1773,12.2472-63.1486-33.0594-75.521-50.2368l-.9122-.8582A155.3136,155.3136,0,0,0,320.4873,394.44l-22.6619-23.785a7.5172,7.5172,0,0,1-.0051-10.6309q.19-.19.3924-.3657a7.63,7.63,0,0,1,10.7892.1648q.1059.1092.2074.2225L342.6408,394.68a6.6387,6.6387,0,0,0,9.2906-9.4853L300.3406,329.298a7.63,7.63,0,0,1,.1647-10.7892q.1092-.1058.2225-.2073a7.5173,7.5173,0,0,1,10.6311-.005q.19.1895.3655.3922l45.8609,47.7359a6.8684,6.8684,0,0,0,9.2257.4412,6.5278,6.5278,0,0,0,.0623-9.2316q-.0784-.0795-.16-.1563L313.353,301.6365a7.7806,7.7806,0,0,1,11.3837-10.6094l49.3426,51.71a6.6386,6.6386,0,0,0,9.314-9.4623l-.0234-.0229L341.5263,289.65a7.63,7.63,0,0,1,.1647-10.7892q.1092-.1059.2226-.2074a7.5172,7.5172,0,0,1,10.6309-.0051q.19.19.3657.3924l40.0192,41.8812c-.007,5.8481,1.7559,11.6422,5.7731,15.7765l11.518,12.2407c-24.8292,41.6476,6.0386,67.3216,6.5777,67.4839a6.9374,6.9374,0,0,0,8.8493-.26.547.547,0,0,1,.6737-.38l.0223.0067a6.6533,6.6533,0,0,0-1.333-9.1727c-.9123-.8582-21.059-17.4567-5.7929-46.78a39.3446,39.3446,0,0,1,4.0713,5.9057l2.4088,3.6507a6.7429,6.7429,0,0,0,11.4869-7.0653l-2.4089-3.6507c-1.4362-6.866-4.2224-11.2139-8.4-14.8144L409.5522,325.93a7.1413,7.1413,0,0,1-2.3018-5.9561,7.7794,7.7794,0,0,1,2.85-5.5749,7.63,7.63,0,0,1,10.7892.1648q.1059.1092.2074.2225l33.7551,33.56a49.63,49.63,0,0,1,14.2834,34.129l-.1482,37.386a7.5314,7.5314,0,0,0,2.0855,4.7242L488.4314,442.68a7.034,7.034,0,0,0,9.9892-9.854Z"/>
  </g>
</svg>
