<?xml version="1.0" encoding="utf-8"?>
<!-- Generator: Adobe Illustrator 26.0.3, SVG Export Plug-In . SVG Version: 6.00 Build 0)  -->
<svg fill="#13C4A3" version="1.1" id="Layer_1" xmlns="http://www.w3.org/2000/svg" xmlns:xlink="http://www.w3.org/1999/xlink" x="0px" y="0px"
	 viewBox="0 0 505.4 650.6" style="enable-background:new 0 0 505.4 650.6;" xml:space="preserve">
<path d="M0,342.6c0-7.8,0.6-15.5,1.7-23.1l13-95c3.4-28.9,20.6-54.7,45.9-68.9l2.5-1.4V86.2c0-29.7,19.7-57.5,46.7-66
	c19.2-6.1,40.5-2.8,57.1,8.6l2.1,1.4l3.8-1.3l0.9-1.1c12.7-16,31.7-26.2,52.1-27.9c20.3,0.1,39.8,10.2,53.5,27.9l2.9,3.7l3.9-2.6
	c11.3-7.6,24.5-11.9,38.2-12.2c20.5,0.3,39.4,9.7,51.8,26l2.7,3.5l3.8-2.2c11.2-6.4,23.9-12.4,40.3-12.4c17.3,0,33.8,7.4,46.4,21
	c12.3,13.2,19.4,30.9,19.4,48.5v72.5c-0.3,7.1-1.5,14.2-3.5,21l-0.4,1.3l0.3,1.3c18,73.8,20.3,154.5,20.3,216.5
	c-1.9,55.5-30.1,105.4-75.6,133.4l-6.3,3.2v79.4c0,9.6-7.8,17.3-17.3,17.3s-17.3-7.8-17.3-17.3v-89.3l0-0.4c0-5.8,3.2-11.1,8.4-13.8
	l0.2-0.1l20.8-13.2c36.4-24.2,58.1-63.3,58.1-104.7c0-68.3-4.3-125.8-13.1-175.8l-1.2-7.1l-6.2,3.6c-8.2,4.8-17.6,7.1-27.1,6.8
	l-0.2,0c-10.7,0-26-2.1-37.7-11.9l-4-3.3l-3.2,4.1c-12.5,16.3-31.4,25.7-51.9,26c-13,0.3-25.5-3.3-36.3-10.4l-4.3-2.8l-2.7,4.3
	c-3.5,5.7-7.7,11-12.3,15.8c-10.3,9.7-23.8,15.8-37.9,17.2l-10.3,1l7.1,7.4c40.9,42.8,44,93.3,44,107.7c0,4.5-0.2,8.8-0.7,12.8
	c-1.6,9.1-9.2,16.2-17.4,16.2h-1.5c-9.8-1.5-16.1-7.7-16.1-15.9c0-0.8,0.1-1.7,0.2-2.6l0-0.4v-0.4c0-0.1,0-0.3,0-0.6
	c0-0.8,0.1-2.2,0.1-4c0-10.3-1.4-30.7-11.1-52.7c-12.4-28.3-34.1-50-64.4-64.4l-6.1-2.9l-4.7,32.5c-2.3,9.2-11,15.4-20.4,14.6
	c-8.5-1.7-14.6-9.2-14.6-17.8c0-0.9,0.1-1.7,0.2-2.6l7.4-50.2c1.3-8.3,8.7-14.5,17.2-14.4l78.1,3.7c8.4,0.4,16.7-2.8,22.5-9l0.3-0.3
	l0.2-0.4c3.9-5.8,8.3-12.4,8.3-21.3c0-0.2,0-0.5,0-0.7c0-0.2,0-0.5,0-0.7c-0.2-8.1-3.6-15.7-9.4-21.3c-5.9-5.6-13.5-8.6-21.6-8.4
	l-115.2-1.9c-30.5-1.7-57.3,20.6-61,50.9l-13,94.8c-1,6.6-1.5,13.4-1.5,20.1c0,33.3,12.2,65.2,34.4,90l89.4,102.4
	c2.8,3,4.3,6.9,4.3,10.9c0,0.1,0,0.6,0,0.6v85.6c0,9.5-7.8,17.3-17.3,17.3c-9.6,0-17.3-7.8-17.3-17.3v-78.2l-85-98.2
	C15.4,424.4,0,383.8,0,342.6C0,342.6,0,342.7,0,342.6z M161.8,82.4c0-8.3-3.2-16.1-9.1-22c-5.9-5.9-13.7-9.1-22-9.1
	c-17.1,0-31,13.9-31,31.1v60.9H112l49.8,2.1L161.8,82.4z M258.6,67.6c0-17.1-13.9-31-31-31c-17.1,0-31.1,13.9-31.1,31v77.6h28.8
	c9,1.5,18,3.9,26.6,7.1l6.7,2.5L258.6,67.6z M355.4,84.3c0-8.3-3.2-16.1-9.1-22c-5.9-5.9-13.7-9.1-22-9.1c-17.1,0-31,13.9-31,31.1
	v102.4c0,17.2,14,31.1,31.1,31.1c17.1,0,31-13.9,31-31.1V84.3z M452.1,97.3c0-17.1-13.9-31-31-31c-17.1,0-31.1,13.9-31.1,31v76.3
	c0,17.1,13.9,31,31,31c8.3,0,16.1-3.2,22-9.1c5.9-5.9,9.1-13.7,9.1-22V97.3z"/>
</svg>
