<?xml version="1.0" encoding="utf-8"?>
<!-- Generator: Adobe Illustrator 26.0.3, SVG Export Plug-In . SVG Version: 6.00 Build 0)  -->
<svg version="1.1" id="Layer_1" xmlns="http://www.w3.org/2000/svg" xmlns:xlink="http://www.w3.org/1999/xlink" x="0px" y="0px"
	 viewBox="0 0 532.7 427.9" style="enable-background:new 0 0 532.7 427.9;" xml:space="preserve">
<style type="text/css">
	.st0{fill:#FBFFF6;}
</style>
<path class="st0" d="M312,189.8c5,3.4,11.8,5,18.5,2.8c9-2.8,15.1-11.8,15.1-21.3v-19.6c7.8-4.5,13.4-12.3,14.6-21.8l3.9-28.6
	c2.2-15.1-2.8-30.8-12.9-42.6L326,29.7v-23c0-3.9-2.8-6.7-6.7-6.7c-3.9,0-6.7,2.8-6.7,6.7v25.8c0,1.7,0.6,3.4,1.7,4.5l26.9,30.8
	c7.8,9,11.2,20.2,9.5,31.9l-3.9,28.6c-1.1,8.4-8.4,14.6-16.8,14l-34.7-0.6c-4.5,0-7.8-3.4-7.8-7.8c0-2.2,1.1-3.9,2.2-5.6
	c1.7-1.7,3.4-2.2,5.6-2.2l23.5,1.1c3.4,0,6.2-2.2,6.7-5.6l2.2-15.1c0.6-3.9-2.2-7.3-5.6-7.8c-3.4-0.6-7.3,2.2-7.8,5.6l-1.1,7.8
	c-23.5-11.2-21.8-34.2-21.8-35.3c0.6-3.9-2.2-6.7-6.2-7.3h-0.6c-3.4,0-6.2,2.8-6.7,6.2c-1.1,9.5,1.7,25.2,13.4,37.5
	c-4.5,0.6-9,2.2-12.3,5.6c-1.7,1.7-2.8,3.4-3.9,5c-3.4-2.2-7.3-3.4-11.8-3.4c-6.7,0-12.9,3.4-16.8,8.4c-3.4-2.8-7.8-3.9-12.3-3.9
	c-3.4,0-6.2,0.6-9,2.2c-3.4-19-3.9-38.6-3.9-52.6c0-12.3,6.7-23.5,16.8-30.2l6.2-3.9c2.2-1.1,3.4-3.4,3.4-5.6V7.8
	c0-3.9-2.8-6.7-6.7-6.7c-3.9,0-6.7,2.8-6.7,6.7v23l-1.1,0.6c-14.6,9-23,24.6-23.5,41.4c0,17.4,0.6,42.6,6.2,65.5
	c-0.6,2.2-1.1,4.5-1.1,6.7v21.8c0,11.8,9.5,22.4,21.3,22.4c5,0,9-1.7,12.9-3.9c3.9,5,10.1,8.4,16.8,8.4c4.5,0,9-1.7,12.3-3.9
	c3.9,5,10.1,9,17.4,9C301.9,198.2,308,194.9,312,189.8L312,189.8z M315.9,155.1l13.4,0.6h2.2v16.8c0,4.5-3.4,7.8-7.8,7.8
	c-4.5,0-7.8-3.4-7.8-7.8L315.9,155.1z M244.2,168c0,4.5-3.4,7.8-7.8,7.8s-7.8-3.4-7.8-7.8v-23c0-4.5,3.4-7.8,7.8-7.8
	s7.8,3.4,7.8,7.8V168z M273.3,171.9c0,4.5-3.4,7.8-7.8,7.8c-4.5,0-7.8-3.4-7.8-7.8v-30.8c0-4.5,3.4-7.8,7.8-7.8
	c4.5,0,7.8,3.4,7.8,7.8V171.9z M286.8,177v-24.1c2.8,1.1,5.6,1.7,8.4,2.2h7.3V177c0,4.5-3.4,7.8-7.8,7.8S286.8,181.4,286.8,177
	L286.8,177z"/>
<path class="st0" d="M241.4,254.8c-5-2.2-11.2-2.8-16.2-0.6l-50.4,18.5l33.6-28c9-7.3,10.1-21.3,2.8-30.2c-7.8-9-21.3-10.1-30.2-2.8
	L121,261.5c-7.8-5.6-18.5-6.7-28-2.8l-26.9,11.2c-14.6,6.2-25.2,17.9-30.2,32.5l-12.3,36.4L3.4,350.6c-3.4,1.7-4.5,6.2-2.2,9
	c2.2,2.8,6.2,4.5,9,2.2l22.4-12.9c1.7-0.6,2.2-2.2,2.8-3.9l12.9-38.6c3.9-11.2,11.8-20.2,23-24.6L98,270.5c7.8-3.4,16.2,0,20.7,6.7
	v0.6l16.8,30.2c2.2,3.9,0.6,8.4-2.8,10.6c-1.7,1.7-3.9,1.7-6.2,1.1s-3.9-2.2-4.5-3.9l-11.2-21.3c-1.7-2.8-5-4.5-8.4-3.4l-14,5.6
	c-3.4,1.1-5,5-3.9,8.4c1.1,3.4,5,5,8.4,3.9l7.3-2.8c2.2,25.8-18.5,35.8-19.6,36.4c-3.4,1.7-5,5.6-3.4,9c0,0,0,0.6,0.6,0.6
	c1.7,2.8,5.6,4.5,8.4,2.8c8.4-3.9,20.7-14,25.8-30.2c2.8,3.4,6.7,6.2,11.2,7.3c2.2,0.6,4.5,1.1,7.3,0.6c0,2.8,0,6.2,1.1,9
	c0.6,1.1,1.1,2.2,1.7,3.4c2.8,4.5,7.3,7.8,11.8,9.5c-1.7,5-1.7,9.5,0,14c0.6,1.1,1.1,2.2,1.7,3.4c1.7,2.8,3.9,5,6.2,6.7
	c-14,11.2-29.1,20.2-40.3,26.9c-10.6,6.2-23.5,6.2-34.7,0.6l-6.7-3.4c-2.2-1.1-4.5-1.1-6.7,0l-23,12.9c-3.4,1.7-4.5,6.2-2.2,9
	c1.7,3.4,6.2,4.5,9,2.2L68.4,415l3.4,1.7c15.1,7.8,33,7.8,47.6-0.6c14-7.8,33.6-20.2,50.4-34.7c1.1,0,1.7-0.6,2.8-0.6l21.3-7.8
	c11.2-3.9,16.8-16.2,12.9-27.4c-1.7-4.5-4.5-7.8-8.4-10.1c0.6-0.6,1.1-1.7,1.7-2.2c2.2-5,2.8-11.2,0.6-16.2c-1.1-2.8-2.2-5-3.9-6.7
	l43.1-15.7c5.6-1.7,9.5-5.6,12.3-11.2c2.2-5,2.8-11.2,0.6-16.2C250.4,261.5,246.4,257.6,241.4,254.8L241.4,254.8z M130.5,271.6
	c0,0,0-0.6-0.6-0.6l58.8-49.3c3.4-2.8,8.4-2.2,11.2,1.1c0.6,0.6,0.6,0.6,0.6,1.1c1.7,3.4,1.1,7.8-1.7,10.1l-61,51L130.5,271.6z
	 M147.9,342.2c-1.7-1.1-3.4-2.2-3.9-4.5c-1.7-3.9,0.6-9,4.5-10.1l29.1-10.6c2.2-0.6,3.9-0.6,6.2,0c1.7,0.6,2.8,1.7,3.4,3.4
	c0,0.6,0.6,0.6,0.6,1.1c0.6,2.2,0.6,3.9-0.6,6.2c-1.1,1.7-2.2,3.4-4.5,3.9l-29.1,10.6C151.8,343.3,149.6,343.3,147.9,342.2
	L147.9,342.2z M193.8,356.7c-1.1,1.7-2.2,3.4-4.5,3.9l-21.3,7.8c-2.2,0.6-3.9,0.6-6.2,0s-3.4-2.2-3.9-4.5c-0.6-2.2-0.6-3.9,0-6.2
	c1.1-1.7,2.8-3.4,4.5-3.9l21.3-7.8c3.9-1.7,9,0.6,10.1,4.5C194.9,352.8,194.9,354.5,193.8,356.7L193.8,356.7z M239.2,277.8
	c-1.1,1.7-2.2,3.4-4.5,3.9l-85.1,30.8c0-3.4-0.6-7.3-2.2-10.6l-2.2-4.5l84.6-30.8c2.2-0.6,3.9-0.6,6.2,0c1.7,1.1,3.4,2.2,3.9,4.5
	C240.3,273.8,240.3,275.5,239.2,277.8L239.2,277.8z"/>
<path class="st0" d="M529.2,345.5l-19.6-11.2l-10.1-33c-4.5-15.7-15.1-28.6-29.7-36.4l-42-22.4c-10.1-5.6-22.4-2.2-28.6,7.8
	c-0.6,0.6-0.6,1.7-1.1,2.2l-45.4-25.2c-10.1-5.6-23.5-2.2-29.1,7.8c-1.7,2.8-2.2,6.2-2.8,9.5c-8.4-1.1-16.8,2.8-21.3,10.6
	c-4.5,7.8-3.4,17.4,1.7,23.5c-2.8,1.7-5,3.9-6.7,7.3c-5.6,10.1-2.2,23.5,7.8,29.1l7.8,4.5c-2.2,1.7-3.9,3.9-5,6.2
	c-5.6,10.1-2.2,23.5,7.8,29.1l28.6,16.2c6.7,3.9,14,8.4,21.8,15.1l1.1,0.6c17.9,14,65,50.4,99.1,28.6l19.6,11.2
	c3.4,1.7,7.3,0.6,9-2.8s0.6-7.3-2.8-9l-23-12.9c-2.2-1.1-5-1.1-7.3,0.6c-26.3,20.7-70-13.4-86.8-26.3l-1.1-0.6
	c-8.4-6.7-16.2-11.8-23.5-15.7l-28.6-16.2c-3.9-2.2-5-6.7-2.8-10.6c2.2-3.9,7.3-5,10.6-2.8l42,23.5c3.4,1.7,7.3,0.6,9-2.8
	c1.7-3.4,0.6-7.3-2.8-9l-65.5-38.6c-3.9-2.2-5-7.3-2.8-10.6c2.2-3.9,6.7-5,10.6-2.8l57.7,32.5c3.4,1.7,7.3,0.6,9-2.2
	c1.7-3.4,0.6-7.3-2.8-9l-67.2-38.1c-3.9-2.2-5-7.3-2.8-10.6c2.2-3.9,7.3-5,10.6-2.8l62.2,35.3c3.4,1.7,7.3,0.6,9-2.8s0.6-7.3-2.8-9
	l-52.6-29.7c-3.9-2.2-5-7.3-2.8-10.6c2.2-3.9,6.7-5,10.6-2.8l50.4,28.6c1.7,5.6,5,10.6,10.1,13.4l14.6,8.4
	c-11.8,47,25.2,62.7,25.8,62.7c3.4,1.1,6.7,0,8.4-2.8c0,0,0-0.6,0.6-0.6c1.1-3.4-0.6-7.3-3.9-8.4c-1.1-0.6-25.2-10.6-19-43.1
	c1.7,1.1,3.9,2.8,5.6,4.5l3.4,2.8c2.8,2.2,6.7,2.2,9.5-0.6c2.2-2.8,2.2-6.7-0.6-9.5l-3.4-2.8c-3.4-6.2-7.3-9.5-12.3-11.8l-21.3-12.3
	c-2.2-1.1-3.4-2.8-3.9-5c-0.6-2.2,0-4.5,1.1-6.2c2.2-3.9,7.3-5,10.6-2.8l42,22.4c11.2,6.2,19.6,16.2,23.5,28.6l10.6,35.8
	c0.6,1.7,1.7,2.8,3.4,3.9l21.8,12.3c3.4,1.7,7.3,0.6,9-2.8C533.7,351.7,532.6,347.2,529.2,345.5L529.2,345.5z"/>
</svg>
