<svg fill="#13C4A3" id="Layer_1" data-name="Layer 1" xmlns="http://www.w3.org/2000/svg" viewBox="0 0 386.6383 660.6361"><path d="M191.7036,9.1027l-.0031.0059c-11.2338,8.0069-20.2839,20.56-21.8658,34.2684L145.5129,175.4576,127.9545,67.4441c-4.282-28.5682-33.0185-48.7892-61.5734-44.5106A54.894,54.894,0,0,0,21.87,84.5069L52.9737,277.026a73.0058,73.0058,0,0,0-41.6628,56.7524L1.2322,405.9305a135.3677,135.3677,0,0,0,31.49,106.4675l62.73,72.8553-.3161,58.3947c-.6558,9.3744,7.5689,17.4891,16.455,16.2242,8.8816-1.2577,17.49-7.5682,16.2243-16.455l.7576-64.6371c.9347-4.33-1.9734-7.67-4.8844-11.0239l-66.85-76.9132c-19.1341-22.699-28.4609-50.99-23.8631-80.8167L43.054,337.8742c2.74-21.1634,20.6626-34.9792,40.8379-36.0824l1.2034.7108,86.5163,2.2853A20.0254,20.0254,0,0,1,190.97,324.3617c1.4889,5.7613-1.3639,10.5907-5.415,14.7011a16,16,0,0,1-14.1492,4.66l-60.0933-2.9555A17.9981,17.9981,0,0,0,93.389,354.5842L87.6409,391.87a16.3981,16.3981,0,0,0,32.1931,6.2607q.022-.1132.0424-.2268l3.2318-19.2488c58.3436,27.96,53.6895,85.4145,53.4638,88.5416a16.877,16.877,0,0,0,14.9219,18.6279l.1067.0114a1.3686,1.3686,0,0,0,1.8843-.4423c.01-.0166.02-.0333.03-.05,8.1713-.0549,16.78-6.3654,16.72-14.5274,2.2384-23.0819-3.7936-62.4467-32.3557-93.9726a54.6008,54.6008,0,0,0,29.9351-14.8594,38.7672,38.7672,0,0,0,10.4685-14.974c6.0334,3.564,13.27,7.8385,20.73,8.9875q4.6889.3351,9.3745.6559A60.5323,60.5323,0,0,0,283.8606,343.43a50.1912,50.1912,0,0,0,30.1581,17.8147q4.6889.3349,9.3757.6566a59.7318,59.7318,0,0,0,22.3119-4.72c6.31,44.4087,6.3718,88.3844,6.595,121.0586-.2708,30.7609-16.6591,58.5042-42.9759,75.5009l-15.7863,10.1986a17.8428,17.8428,0,0,0-8.55,14.4734l-1.4621,65.8685c-.6558,9.3744,7.5689,17.4891,16.4552,16.2244,9.3745.6557,17.4891-7.5689,16.2243-16.455l.316-58.3948,7.8938-5.0988c36.13-22.5968,58.93-61.1949,59.3693-103.253.9262-40.1344-.67-98.0372-10.6595-152.7444,1.4266-2.415.9344-4.33,2.3606-6.7442l10.1911-55.8189a53.5355,53.5355,0,0,0-42.5431-62.6273q-.09-.0174-.1808-.0342a46.9606,46.9606,0,0,0-32.3966,5.2673c-.4923-1.914-2.1924-4.5528-2.6839-6.4672-8.0068-11.2338-20.56-20.2838-34.2684-21.8658a48.3138,48.3138,0,0,0-19.464-.1012L275.235,63.3263c3.509-14.2046.0474-27.6357-8.4474-40.79-8.0068-11.2338-20.56-20.284-34.2684-21.8659A60.2749,60.2749,0,0,0,191.7036,9.1027ZM84.9152,269.7828c-.01.0165-.02.0332-.03.05L53.55,80.4572A19.9815,19.9815,0,0,1,70.2153,57.7593c1.9142-.4925,1.9142-.4925,3.1258.2234,9.3745.6556,18.3152,7.5611,19.5719,16.4429L125.02,270.76,86.8,269.34A1.3687,1.3687,0,0,0,84.9152,269.7828Zm252.4933-36.2652a15.1437,15.1437,0,0,1,13.2746,7.83l-.0009-.0005c2.1924,4.5528,4.3885,9.0964,2.7477,14.6412l-10.1912,55.8188a28.8515,28.8515,0,0,1-7.8385,13.27c-4.0514,4.1108-9.0964,4.3884-14.6411,2.7476a28.8519,28.8519,0,0,1-13.27-7.8385,24.9977,24.9977,0,0,1-2.7478-14.6413l10.1911-55.8188C316.3043,238.94,327.5386,230.9335,337.4085,233.5176Zm-70.5658-23.7948a19.8954,19.8954,0,0,1,12.5587,9.0418c2.1924,4.5528,4.3886,9.0965,2.7471,14.6422l-14.1336,76.2717a12.725,12.725,0,0,1-7.1314,12.0534l0,0c-4.5527,2.1924-9.0964,4.3885-14.6422,2.7471-10.5861-1.3716-18.5924-12.6059-16.0082-22.4758l14.1336-76.2716a28.8519,28.8519,0,0,1,7.8385-13.27A12.6162,12.6162,0,0,1,263.7168,209.5C264.92,210.21,265.6309,209.0071,266.8427,209.7228ZM224.5475,33.3975c6.7444,2.3608,10.3625,4.498,13.7576,9.7613l.0013.0015c2.1924,4.5529,4.3885,9.0965,2.747,14.6423L199.0886,280.36a60.73,60.73,0,0,0-25.7705-8.7188l-12.5-.88,41.25-221.347a28.85,28.85,0,0,1,7.8385-13.2695C214.4591,33.9528,219.003,31.7568,224.5475,33.3975Z"/></svg>